<svg width="24" height="24" viewBox="0 0 24 24" fill="none" xmlns="http://www.w3.org/2000/svg">
<path fill-rule="evenodd" clip-rule="evenodd" d="M16.584 2.99994H7.915C4.894 2.99994 3 5.13894 3 8.16594V16.3339C3 19.3609 4.885 21.4999 7.915 21.4999H16.583C19.614 21.4999 21.5 19.3609 21.5 16.3339V8.16594C21.5 5.13894 19.614 2.99994 16.584 2.99994Z" stroke="black" stroke-width="2" stroke-linecap="round" stroke-linejoin="round"/>
<path d="M12.0597 15.4432V9.75585C12.0597 9.21591 11.8317 8.99994 11.2557 8.99994H9.80391C9.22797 8.99994 9 9.21591 9 9.75585V15.4432C9 15.9832 9.22797 16.1991 9.80391 16.1991H11.2557C11.8317 16.1991 12.0597 15.9832 12.0597 15.4432ZM16.2 15.4432V9.75585C16.2 9.21591 15.972 8.99994 15.3961 8.99994H13.9443C13.3723 8.99994 13.1403 9.21591 13.1403 9.75585V15.4432C13.1403 15.9832 13.3683 16.1991 13.9443 16.1991H15.3961C15.972 16.1991 16.2 15.9832 16.2 15.4432Z" fill="black"/>
</svg>
