<svg width="16" height="16" viewBox="0 0 16 16" fill="none" xmlns="http://www.w3.org/2000/svg">
<g clip-path="url(#clip0_13_694)">
<path d="M14.5921 8.27096C15.3671 8.28696 16.0001 9.21896 16.0001 10.344C16.0001 11.47 15.3671 12.417 14.5921 12.433H10.3862C10.9121 12.118 11.1709 11.489 11.4366 10.754H14.5719C14.7368 10.754 14.8711 10.579 14.8711 10.342C14.8711 10.2856 14.8633 10.2299 14.8483 10.1779C14.8332 10.1259 14.8111 10.0787 14.7833 10.039C14.7555 9.99927 14.7225 9.96788 14.6863 9.9466C14.65 9.92532 14.6111 9.91457 14.5719 9.91496H13.1104C12.7307 9.91285 12.367 9.69439 12.0992 9.30749C11.8313 8.92059 11.6811 8.3968 11.6815 7.85096C11.6815 6.71596 12.3222 5.78796 13.1097 5.78796H15.3664V7.39696H13.1104C13.0298 7.40061 12.9534 7.44941 12.8975 7.53293C12.8416 7.61645 12.8107 7.72808 12.8112 7.84396C12.8112 8.08096 12.9448 8.27096 13.1104 8.27096H14.5921ZM8.91002 5.78796C10.1664 5.78796 11.1834 7.26996 11.1834 9.09796C11.1834 10.925 10.1643 12.433 8.90794 12.433H7.76776V16H6.63037V9.10296C6.63037 7.27596 7.65368 5.78796 8.91002 5.78796ZM8.91002 10.754C9.54237 10.754 10.0565 10.024 10.0565 9.09796C10.0565 8.17196 9.54237 7.41796 8.91002 7.41796C8.27768 7.41796 7.76776 8.17196 7.76776 9.09796V10.754H8.91002Z" fill="#727F96"/>
<path d="M3.02957 12.433H6.03617C5.99954 12.7276 5.89188 12.9942 5.7321 13.1861C5.57231 13.3779 5.37062 13.4827 5.16243 13.482H0.887652C0.399304 13.482 0 12.887 0 12.182V6.004C0 5.3 0.399304 4.74 0.887652 4.74H5.16243C5.65009 4.74 6.05009 5.317 6.05009 6.023L6.04591 10.755H3.02957C2.56765 10.755 2.16696 10.44 1.9687 9.881H5.32383V9.078C5.32272 8.20167 5.08021 7.36164 4.64934 6.7417C4.21846 6.12176 3.63432 5.77238 3.0247 5.77C2.51185 5.77281 2.01441 6.02224 1.61162 6.47857C1.20883 6.93489 0.92385 7.57186 0.802087 8.288C0.802087 8.288 0.734609 8.771 0.734609 9.086C0.734609 9.401 0.805565 9.879 0.805565 9.879C1.05043 11.326 1.95409 12.434 3.02957 12.434V12.433ZM3.0247 7.339C3.48522 7.339 3.88522 7.746 4.08417 8.271H1.96522C2.16417 7.746 2.56487 7.339 3.0247 7.339V7.339ZM4.9607 2.729V3.494C4.9607 3.593 4.90087 3.69 4.8313 3.69H4.11896C4.04939 3.69 3.99304 3.593 3.99304 3.494V2.73C3.99304 1.977 3.55896 1.364 3.0247 1.364C2.49113 1.364 2.05704 1.977 2.05704 2.73V3.494C2.05704 3.593 1.99583 3.69 1.92626 3.69H1.21391C1.14435 3.69 1.0887 3.593 1.0887 3.494V2.655C1.11722 1.182 1.97287 0 3.02539 0C4.09391 0 4.96 1.222 4.96 2.73L4.9607 2.729Z" fill="#A41760"/>
</g>
<defs>
<clipPath id="clip0_13_694">
<rect width="16" height="16" fill="white"/>
</clipPath>
</defs>
</svg>
