<svg width="26" height="26" viewBox="0 0 26 26" fill="none" xmlns="http://www.w3.org/2000/svg">
<path d="M18.9909 8.41746C18.9154 8.40663 18.8388 8.40663 18.7634 8.41746C17.9543 8.39098 17.1873 8.05042 16.6251 7.46797C16.0628 6.88552 15.7496 6.10699 15.7517 5.29746C15.7517 3.57496 17.1492 2.16663 18.8825 2.16663C20.605 2.16663 22.0134 3.56413 22.0134 5.29746C22.011 6.1075 21.6948 6.88511 21.1312 7.46692C20.5676 8.04873 19.8004 8.38943 18.9909 8.41746ZM22.5247 15.925C21.3114 16.7375 19.6105 17.0408 18.0397 16.835C18.4514 15.9466 18.668 14.9608 18.6789 13.9208C18.6789 12.8375 18.4405 11.8083 17.9855 10.9091C19.5889 10.6925 21.2897 10.9958 22.5139 11.8083C24.2255 12.935 24.2255 14.7875 22.5247 15.925ZM6.97669 8.41746C7.05252 8.40663 7.12835 8.40663 7.20419 8.41746C8.01329 8.39098 8.78026 8.05042 9.34249 7.46797C9.90471 6.88552 10.218 6.10699 10.2159 5.29746C10.2159 4.88702 10.135 4.48061 9.97795 4.10141C9.82088 3.72222 9.59066 3.37768 9.30044 3.08746C9.01022 2.79723 8.66568 2.56702 8.28648 2.40995C7.90729 2.25288 7.50087 2.17204 7.09044 2.17204C6.68 2.17204 6.27358 2.25288 5.89439 2.40995C5.5152 2.56702 5.17066 2.79723 4.88043 3.08746C4.59021 3.37768 4.36 3.72222 4.20293 4.10141C4.04586 4.48061 3.96502 4.88702 3.96502 5.29746C3.96502 6.98746 5.29752 8.36329 6.97669 8.41746ZM7.09694 13.9208C7.09694 14.9716 7.32444 15.9683 7.7361 16.8675C6.2086 17.03 4.6161 16.705 3.4461 15.9358C1.73444 14.7983 1.73444 12.9458 3.4461 11.8083C4.60527 11.0283 6.2411 10.7141 7.77944 10.8875C7.33527 11.7975 7.09694 12.8266 7.09694 13.9208ZM13.13 17.1925C13.0364 17.1816 12.9419 17.1816 12.8484 17.1925C11.8851 17.1601 10.9722 16.7542 10.303 16.0607C9.63372 15.3671 9.26057 14.4404 9.26252 13.4766C9.27335 11.4183 10.9309 9.74996 13 9.74996C15.0584 9.74996 16.7267 11.4183 16.7267 13.4766C16.7261 14.4415 16.3506 15.3684 15.6796 16.0617C15.0085 16.755 14.0944 17.1604 13.13 17.1925ZM9.60919 19.435C7.97335 20.5291 7.97335 22.3275 9.60919 23.4108C11.4725 24.6566 14.5275 24.6566 16.3909 23.4108C18.0267 22.3166 18.0267 20.5183 16.3909 19.435C14.5384 18.1891 11.4834 18.1891 9.60919 19.435Z" fill="#416EEA"/>
</svg>
