<svg width="24" height="22" viewBox="0 0 24 22" fill="none" xmlns="http://www.w3.org/2000/svg">
<path d="M19.67 15.03C19.0308 11.2058 15.3583 8.09662 11.48 8.09662C7.26583 8.09662 3.56083 11.5091 3.20333 15.7125C3.0625 17.3375 3.5825 18.8758 4.655 20.035C5.71667 21.1941 7.21167 21.8333 8.83667 21.8333H13.9067C15.7375 21.8333 17.3408 21.1183 18.435 19.8291C19.5292 18.54 19.9625 16.8283 19.67 15.03ZM10.1367 6.51496C10.9785 6.51496 11.7859 6.18054 12.3811 5.58527C12.9764 4.99 13.3108 4.18263 13.3108 3.34079C13.3108 2.49895 12.9764 1.69159 12.3811 1.09632C11.7859 0.501046 10.9785 0.166626 10.1367 0.166626C9.29483 0.166626 8.48746 0.501046 7.89219 1.09632C7.29692 1.69159 6.9625 2.49895 6.9625 3.34079C6.9625 4.18263 7.29692 4.99 7.89219 5.58527C8.48746 6.18054 9.29483 6.51496 10.1367 6.51496ZM17.3517 7.78029C18.0527 7.78029 18.7251 7.5018 19.2208 7.00608C19.7165 6.51036 19.995 5.83801 19.995 5.13696C19.995 4.4359 19.7165 3.76356 19.2208 3.26784C18.7251 2.77212 18.0527 2.49363 17.3517 2.49363C16.6506 2.49363 15.9783 2.77212 15.4825 3.26784C14.9868 3.76356 14.7083 4.4359 14.7083 5.13696C14.7083 5.83801 14.9868 6.51036 15.4825 7.00608C15.9783 7.5018 16.6506 7.78029 17.3517 7.78029ZM21.2625 12.0085C21.5399 12.0085 21.8146 11.9539 22.0709 11.8477C22.3272 11.7416 22.5601 11.586 22.7563 11.3898C22.9524 11.1936 23.108 10.9608 23.2142 10.7045C23.3204 10.4482 23.375 10.1735 23.375 9.89604C23.375 9.61862 23.3204 9.34392 23.2142 9.08762C23.108 8.83132 22.9524 8.59844 22.7563 8.40228C22.5601 8.20611 22.3272 8.05051 22.0709 7.94435C21.8146 7.83818 21.5399 7.78354 21.2625 7.78354C20.7022 7.78354 20.1649 8.00611 19.7687 8.40228C19.3726 8.79845 19.15 9.33577 19.15 9.89604C19.15 10.4563 19.3726 10.9936 19.7687 11.3898C20.1649 11.786 20.7022 12.0085 21.2625 12.0085ZM3.26833 9.89713C3.61546 9.89713 3.95919 9.82875 4.27989 9.69591C4.6006 9.56307 4.892 9.36837 5.13745 9.12291C5.38291 8.87745 5.57762 8.58606 5.71046 8.26535C5.8433 7.94465 5.91167 7.60092 5.91167 7.25379C5.91167 6.90666 5.8433 6.56294 5.71046 6.24223C5.57762 5.92153 5.38291 5.63013 5.13745 5.38467C4.892 5.13922 4.6006 4.94451 4.27989 4.81167C3.95919 4.67883 3.61546 4.61046 3.26833 4.61046C2.56728 4.61046 1.89494 4.88895 1.39921 5.38467C0.903493 5.88039 0.625 6.55274 0.625 7.25379C0.625 7.95485 0.903493 8.62719 1.39921 9.12291C1.89494 9.61863 2.56728 9.89713 3.26833 9.89713Z" fill="#416EEA"/>
</svg>
