<svg width="26" height="26" viewBox="0 0 26 26" fill="none" xmlns="http://www.w3.org/2000/svg">
<path d="M18.577 10.8331C18.8643 10.8331 19.1399 10.719 19.343 10.5158C19.5462 10.3127 19.6603 10.0371 19.6603 9.7498C19.6603 9.46249 19.5462 9.18694 19.343 8.98377C19.1399 8.78061 18.8643 8.66647 18.577 8.66647C18.2897 8.66647 18.0141 8.78061 17.811 8.98377C17.6078 9.18694 17.4937 9.46249 17.4937 9.7498C17.4937 10.0371 17.6078 10.3127 17.811 10.5158C18.0141 10.719 18.2897 10.8331 18.577 10.8331ZM18.577 17.3331C18.8643 17.3331 19.1399 17.219 19.343 17.0158C19.5462 16.8127 19.6603 16.5371 19.6603 16.2498C19.6603 15.9625 19.5462 15.6869 19.343 15.4838C19.1399 15.2806 18.8643 15.1665 18.577 15.1665C18.2897 15.1665 18.0141 15.2806 17.811 15.4838C17.6078 15.6869 17.4937 15.9625 17.4937 16.2498C17.4937 16.5371 17.6078 16.8127 17.811 17.0158C18.0141 17.219 18.2897 17.3331 18.577 17.3331ZM21.3958 14.0831C21.6832 14.0831 21.9587 13.969 22.1619 13.7658C22.365 13.5627 22.4792 13.2871 22.4792 12.9998C22.4792 12.7125 22.365 12.4369 22.1619 12.2338C21.9587 12.0306 21.6832 11.9165 21.3958 11.9165C21.1085 11.9165 20.833 12.0306 20.6298 12.2338C20.4266 12.4369 20.3125 12.7125 20.3125 12.9998C20.3125 13.2871 20.4266 13.5627 20.6298 13.7658C20.833 13.969 21.1085 14.0831 21.3958 14.0831ZM7.36559 10.8331C7.65291 10.8331 7.92846 10.719 8.13162 10.5158C8.33479 10.3127 8.44893 10.0371 8.44893 9.7498C8.44893 9.46249 8.33479 9.18694 8.13162 8.98377C7.92846 8.78061 7.65291 8.66647 7.36559 8.66647C7.07827 8.66647 6.80272 8.78061 6.59956 8.98377C6.39639 9.18694 6.28226 9.46249 6.28226 9.7498C6.28226 10.0371 6.39639 10.3127 6.59956 10.5158C6.80272 10.719 7.07827 10.8331 7.36559 10.8331ZM7.36559 17.3331C7.65291 17.3331 7.92846 17.219 8.13162 17.0158C8.33479 16.8127 8.44893 16.5371 8.44893 16.2498C8.44893 15.9625 8.33479 15.6869 8.13162 15.4838C7.92846 15.2806 7.65291 15.1665 7.36559 15.1665C7.07827 15.1665 6.80272 15.2806 6.59956 15.4838C6.39639 15.6869 6.28226 15.9625 6.28226 16.2498C6.28226 16.5371 6.39639 16.8127 6.59956 17.0158C6.80272 17.219 7.07827 17.3331 7.36559 17.3331ZM4.55001 14.0831C4.83733 14.0831 5.11288 13.969 5.31604 13.7658C5.51921 13.5627 5.63334 13.2871 5.63334 12.9998C5.63334 12.7125 5.51921 12.4369 5.31604 12.2338C5.11288 12.0306 4.83733 11.9165 4.55001 11.9165C4.26269 11.9165 3.98714 12.0306 3.78398 12.2338C3.58081 12.4369 3.46667 12.7125 3.46667 12.9998C3.46667 13.2871 3.58081 13.5627 3.78398 13.7658C3.98714 13.969 4.26269 14.0831 4.55001 14.0831ZM17.2228 6.71647C17.5102 6.71647 17.7857 6.60234 17.9889 6.39917C18.192 6.19601 18.3062 5.92046 18.3062 5.63314C18.3062 5.34582 18.192 5.07027 17.9889 4.86711C17.7857 4.66394 17.5102 4.5498 17.2228 4.5498C16.9355 4.5498 16.66 4.66394 16.4568 4.86711C16.2536 5.07027 16.1395 5.34582 16.1395 5.63314C16.1395 5.92046 16.2536 6.19601 16.4568 6.39917C16.66 6.60234 16.9355 6.71647 17.2228 6.71647ZM8.77501 6.71647C9.06233 6.71647 9.33788 6.60234 9.54104 6.39917C9.74421 6.19601 9.85834 5.92046 9.85834 5.63314C9.85834 5.34582 9.74421 5.07027 9.54104 4.86711C9.33788 4.66394 9.06233 4.5498 8.77501 4.5498C8.48769 4.5498 8.21214 4.66394 8.00898 4.86711C7.80581 5.07027 7.69167 5.34582 7.69167 5.63314C7.69167 5.92046 7.80581 6.19601 8.00898 6.39917C8.21214 6.60234 8.48769 6.71647 8.77501 6.71647ZM13.0531 7.58314C13.3404 7.58314 13.616 7.469 13.8191 7.26584C14.0223 7.06267 14.1364 6.78712 14.1364 6.4998C14.1364 6.21249 14.0223 5.93694 13.8191 5.73377C13.616 5.53061 13.3404 5.41647 13.0531 5.41647C12.7658 5.41647 12.4902 5.53061 12.2871 5.73377C12.0839 5.93694 11.9698 6.21249 11.9698 6.4998C11.9698 6.78712 12.0839 7.06267 12.2871 7.26584C12.4902 7.469 12.7658 7.58314 13.0531 7.58314ZM17.2228 21.6665C17.5102 21.6665 17.7857 21.5523 17.9889 21.3492C18.192 21.146 18.3062 20.8705 18.3062 20.5831C18.3062 20.2958 18.192 20.0203 17.9889 19.8171C17.7857 19.6139 17.5102 19.4998 17.2228 19.4998C16.9355 19.4998 16.66 19.6139 16.4568 19.8171C16.2536 20.0203 16.1395 20.2958 16.1395 20.5831C16.1395 20.8705 16.2536 21.146 16.4568 21.3492C16.66 21.5523 16.9355 21.6665 17.2228 21.6665ZM8.77501 21.6665C9.06233 21.6665 9.33788 21.5523 9.54104 21.3492C9.74421 21.146 9.85834 20.8705 9.85834 20.5831C9.85834 20.2958 9.74421 20.0203 9.54104 19.8171C9.33788 19.6139 9.06233 19.4998 8.77501 19.4998C8.48769 19.4998 8.21214 19.6139 8.00898 19.8171C7.80581 20.0203 7.69167 20.2958 7.69167 20.5831C7.69167 20.8705 7.80581 21.146 8.00898 21.3492C8.21214 21.5523 8.48769 21.6665 8.77501 21.6665ZM13.0531 20.7998C13.3404 20.7998 13.616 20.6857 13.8191 20.4825C14.0223 20.2793 14.1364 20.0038 14.1364 19.7165C14.1364 19.4292 14.0223 19.1536 13.8191 18.9504C13.616 18.7473 13.3404 18.6331 13.0531 18.6331C12.7658 18.6331 12.4902 18.7473 12.2871 18.9504C12.0839 19.1536 11.9698 19.4292 11.9698 19.7165C11.9698 20.0038 12.0839 20.2793 12.2871 20.4825C12.4902 20.6857 12.7658 20.7998 13.0531 20.7998ZM14.8958 11.104C15.255 11.104 15.5994 10.9613 15.8534 10.7073C16.1073 10.4534 16.25 10.109 16.25 9.7498C16.25 9.39066 16.1073 9.04622 15.8534 8.79226C15.5994 8.53831 15.255 8.39564 14.8958 8.39564C14.5367 8.39564 14.1923 8.53831 13.9383 8.79226C13.6843 9.04622 13.5417 9.39066 13.5417 9.7498C13.5417 10.109 13.6843 10.4534 13.9383 10.7073C14.1923 10.9613 14.5367 11.104 14.8958 11.104ZM11.1042 11.104C11.4633 11.104 11.8078 10.9613 12.0617 10.7073C12.3157 10.4534 12.4583 10.109 12.4583 9.7498C12.4583 9.39066 12.3157 9.04622 12.0617 8.79226C11.8078 8.53831 11.4633 8.39564 11.1042 8.39564C10.745 8.39564 10.4006 8.53831 10.1466 8.79226C9.89268 9.04622 9.75001 9.39066 9.75001 9.7498C9.75001 10.109 9.89268 10.4534 10.1466 10.7073C10.4006 10.9613 10.745 11.104 11.1042 11.104ZM16.7917 14.354C17.1508 14.354 17.4953 14.2113 17.7492 13.9573C18.0032 13.7034 18.1458 13.359 18.1458 12.9998C18.1458 12.6407 18.0032 12.2962 17.7492 12.0423C17.4953 11.7883 17.1508 11.6456 16.7917 11.6456C16.4325 11.6456 16.0881 11.7883 15.8341 12.0423C15.5802 12.2962 15.4375 12.6407 15.4375 12.9998C15.4375 13.359 15.5802 13.7034 15.8341 13.9573C16.0881 14.2113 16.4325 14.354 16.7917 14.354ZM9.20834 14.354C9.56749 14.354 9.91193 14.2113 10.1659 13.9573C10.4198 13.7034 10.5625 13.359 10.5625 12.9998C10.5625 12.6407 10.4198 12.2962 10.1659 12.0423C9.91193 11.7883 9.56749 11.6456 9.20834 11.6456C8.84919 11.6456 8.50476 11.7883 8.2508 12.0423C7.99685 12.2962 7.85418 12.6407 7.85418 12.9998C7.85418 13.359 7.99685 13.7034 8.2508 13.9573C8.50476 14.2113 8.84919 14.354 9.20834 14.354ZM11.1042 17.604C11.4633 17.604 11.8078 17.4613 12.0617 17.2073C12.3157 16.9534 12.4583 16.609 12.4583 16.2498C12.4583 15.8907 12.3157 15.5462 12.0617 15.2923C11.8078 15.0383 11.4633 14.8956 11.1042 14.8956C10.745 14.8956 10.4006 15.0383 10.1466 15.2923C9.89268 15.5462 9.75001 15.8907 9.75001 16.2498C9.75001 16.609 9.89268 16.9534 10.1466 17.2073C10.4006 17.4613 10.745 17.604 11.1042 17.604ZM14.8958 17.604C15.255 17.604 15.5994 17.4613 15.8534 17.2073C16.1073 16.9534 16.25 16.609 16.25 16.2498C16.25 15.8907 16.1073 15.5462 15.8534 15.2923C15.5994 15.0383 15.255 14.8956 14.8958 14.8956C14.5367 14.8956 14.1923 15.0383 13.9383 15.2923C13.6843 15.5462 13.5417 15.8907 13.5417 16.2498C13.5417 16.609 13.6843 16.9534 13.9383 17.2073C14.1923 17.4613 14.5367 17.604 14.8958 17.604Z" fill="#416EEA"/>
<path d="M13 3.60735C12.4692 3.60735 12.0467 3.18485 12.0467 2.65402C12.0467 2.12318 12.4692 1.70068 13 1.70068C13.5308 1.70068 13.9533 2.12318 13.9533 2.65402C13.9533 3.18485 13.5308 3.60735 13 3.60735Z" fill="#416EEA"/>
<path d="M18.6875 3.90234C18.2325 3.90234 17.8642 3.53401 17.8642 3.08984C17.8642 2.64568 18.2325 2.27734 18.6767 2.27734C19.1208 2.27734 19.5 2.64568 19.5 3.08984C19.5 3.53401 19.1425 3.90234 18.6875 3.90234Z" fill="#416EEA"/>
<path d="M7.3125 3.90234C7.09701 3.90234 6.89035 3.81674 6.73798 3.66437C6.5856 3.51199 6.5 3.30533 6.5 3.08984C6.5 2.87436 6.5856 2.66769 6.73798 2.51532C6.89035 2.36295 7.09701 2.27734 7.3125 2.27734H7.32333C7.7675 2.27734 8.13583 2.64568 8.13583 3.08984C8.13583 3.53401 7.7675 3.90234 7.3125 3.90234Z" fill="#416EEA"/>
<path d="M13 24.246C12.4692 24.246 12.0467 23.8235 12.0467 23.2927C12.0467 22.7619 12.4692 22.3394 13 22.3394C13.5308 22.3394 13.9533 22.7619 13.9533 23.2927C13.9533 23.8235 13.5308 24.246 13 24.246Z" fill="#416EEA"/>
<path d="M18.6875 23.6729C18.2325 23.6729 17.8642 23.3045 17.8642 22.8604C17.8642 22.4162 18.2325 22.0479 18.6767 22.0479C19.1208 22.0479 19.5 22.4162 19.5 22.8604C19.5 23.3045 19.1425 23.6729 18.6875 23.6729Z" fill="#416EEA"/>
<path d="M7.3125 23.6729C7.09701 23.6729 6.89035 23.5872 6.73798 23.4349C6.5856 23.2825 6.5 23.0758 6.5 22.8604C6.5 22.6449 6.5856 22.4382 6.73798 22.2858C6.89035 22.1335 7.09701 22.0479 7.3125 22.0479H7.32333C7.7675 22.0479 8.13583 22.4162 8.13583 22.8604C8.13583 23.3045 7.7675 23.6729 7.3125 23.6729Z" fill="#416EEA"/>
<path d="M1.67916 13.9545C1.42819 13.9545 1.18733 13.8556 1.00886 13.6791C0.83038 13.5027 0.728682 13.263 0.72583 13.012V13.0012C0.72583 12.4812 1.14833 12.0479 1.67916 12.0479C2.21 12.0479 2.6325 12.4704 2.6325 13.0012C2.6325 13.532 2.19916 13.9545 1.67916 13.9545Z" fill="#416EEA"/>
<path d="M4.0625 19.2271C3.61833 19.2271 3.25 18.8696 3.25 18.4146V18.4038C3.25 17.9596 3.61833 17.5913 4.0625 17.5913C4.50667 17.5913 4.875 17.9596 4.875 18.4038C4.875 18.848 4.50667 19.2271 4.0625 19.2271Z" fill="#416EEA"/>
<path d="M4.0625 8.40869C3.61833 8.40869 3.25 8.04036 3.25 7.59619C3.25 7.15202 3.61833 6.78369 4.0625 6.78369C4.50667 6.78369 4.875 7.14119 4.875 7.58536V7.59619C4.875 8.04036 4.50667 8.40869 4.0625 8.40869Z" fill="#416EEA"/>
<path d="M24.375 13.9546C24.124 13.9546 23.8832 13.8556 23.7047 13.6792C23.5262 13.5027 23.4245 13.263 23.4217 13.0121V13.0012C23.4333 12.7563 23.5389 12.5252 23.7164 12.3559C23.8939 12.1867 24.1297 12.0923 24.375 12.0923C24.6203 12.0923 24.8561 12.1867 25.0336 12.3559C25.2111 12.5252 25.3166 12.7563 25.3283 13.0012C25.3283 13.5321 24.895 13.9546 24.375 13.9546Z" fill="#416EEA"/>
<path d="M21.9917 19.2271C21.5475 19.2271 21.1792 18.8696 21.1792 18.4146V18.4038C21.1792 17.9596 21.5475 17.5913 21.9917 17.5913C22.4358 17.5913 22.8042 17.9596 22.8042 18.4038C22.8042 18.848 22.4358 19.2271 21.9917 19.2271Z" fill="#416EEA"/>
<path d="M21.9917 8.40869C21.5475 8.40869 21.1792 8.04036 21.1792 7.59619C21.1792 7.15202 21.5475 6.78369 21.9917 6.78369C22.4358 6.78369 22.8042 7.14119 22.8042 7.59619V7.60702C22.8042 8.04036 22.4358 8.40869 21.9917 8.40869Z" fill="#416EEA"/>
</svg>
