<svg width="20" height="21" viewBox="0 0 20 21" fill="none" xmlns="http://www.w3.org/2000/svg">
<path d="M11.5789 1.06509V8.35612H20C20 4.11004 16.8632 0.590958 12.7789 0.0114686C12.1474 -0.083357 11.5789 0.42238 11.5789 1.06509ZM18.2316 14.5619C19.3368 13.1395 20 11.3484 20 9.40974H4.67368L3.9579 7.90307C3.78947 7.5343 3.41053 7.3025 3.01053 7.3025H1.05263C0.473684 7.3025 0 7.77663 0 8.35612C0 8.93561 0.473684 9.40974 1.05263 9.40974H2.33684C2.33684 9.40974 4.32632 13.698 4.56842 14.0667C3.16842 14.8148 2.31579 16.4584 2.73684 18.218C3.05263 19.5455 4.14737 20.6097 5.47368 20.9047C7.68421 21.3894 9.66316 19.8932 9.94737 17.8387H12.1368C12.4211 19.8827 14.3895 21.3788 16.5789 20.9152C17.9158 20.6308 19.0105 19.5772 19.3474 18.2496C19.7158 16.7851 19.2 15.4259 18.2316 14.5619ZM6.31579 18.8923C5.44211 18.8923 4.73684 18.1864 4.73684 17.3119C4.73684 16.4374 5.44211 15.7314 6.31579 15.7314C7.18947 15.7314 7.89474 16.4374 7.89474 17.3119C7.89474 18.1864 7.18947 18.8923 6.31579 18.8923ZM15.7895 18.8923C14.9158 18.8923 14.2105 18.1864 14.2105 17.3119C14.2105 16.4374 14.9158 15.7314 15.7895 15.7314C16.6632 15.7314 17.3684 16.4374 17.3684 17.3119C17.3684 18.1864 16.6632 18.8923 15.7895 18.8923Z" fill="#416EEA"/>
</svg>
