<svg width="46" height="46" viewBox="0 0 46 46" fill="none" xmlns="http://www.w3.org/2000/svg">
<g clip-path="url(#clip0_113_653)">
<path d="M46 0H0V46H46V0Z" fill="#17264D"/>
<path d="M34.0869 16.2703H30.7625V22.0651H34.0592V21.128H31.9061V19.584H33.8398V18.6726H31.9061V17.2372H34.0592V16.2703H34.0869ZM25.1254 16.298V22.0651H26.269V19.8034H26.8142L28.0664 22.0651H29.4017L28.0387 19.7203C28.9651 19.4712 29.3463 18.7535 29.3463 18.0656C29.3463 17.1009 28.6648 16.3002 27.2763 16.3002H25.1254V16.298ZM28.1494 18.0912C28.1494 18.6151 27.8492 18.9473 27.2231 18.9473H26.269V17.2649H27.2231C27.8492 17.2372 28.1494 17.5694 28.1494 18.0933V18.0912ZM22.0481 20.0504H20.4125L21.2303 17.6227L22.0481 20.0504ZM22.7295 22.0651H23.9285L21.8862 16.2703H20.5509L18.5086 22.0651H19.7076L20.0888 20.9619H22.3505L22.7317 22.0651H22.7295ZM11.9153 19.1688C11.9153 20.9065 13.1675 22.1204 14.8031 22.1204C16.083 22.1204 17.0924 21.4304 17.4736 20.2442H16.166C15.8934 20.7958 15.4036 21.0727 14.8031 21.0727C13.7957 21.0727 13.0866 20.3273 13.0866 19.1688C13.0866 18.0103 13.7957 17.2649 14.8031 17.2649C15.4015 17.2649 15.919 17.5417 16.166 18.0933H17.4736C17.0924 16.9071 16.0574 16.2171 14.8031 16.2171C13.1675 16.2171 11.9153 17.431 11.9153 19.1688Z" fill="white"/>
<path d="M40.9656 28.0749C40.9656 26.0326 38.0501 26.6949 38.0501 25.5364C38.0501 25.0679 38.3781 24.8464 38.8402 24.8464C39.33 24.8464 39.6303 25.1488 39.658 25.5364H40.9102C40.8293 24.4886 40.0392 23.8817 38.8679 23.8817C37.6966 23.8817 36.8511 24.5163 36.8511 25.5641C36.8511 27.6617 39.7921 26.9164 39.7921 28.1579C39.7921 28.5711 39.4663 28.848 38.9488 28.848C38.4313 28.848 38.1033 28.5434 38.0778 28.0749H36.8511C36.8788 29.178 37.7775 29.785 38.9765 29.785C40.2564 29.8127 40.9656 28.9842 40.9656 28.0749ZM35.5712 28.0749C35.5712 26.0326 32.6557 26.6949 32.6557 25.5364C32.6557 25.0679 32.9837 24.8464 33.4458 24.8464C33.9357 24.8464 34.2359 25.1488 34.2636 25.5364H35.5158C35.4349 24.4886 34.6448 23.8817 33.4735 23.8817C32.3022 23.8817 31.4568 24.5163 31.4568 25.5641C31.4568 27.6617 34.3999 26.9164 34.3999 28.1579C34.3999 28.5711 34.072 28.848 33.5289 28.848C32.9858 28.848 32.6856 28.5434 32.6579 28.0749H31.4312C31.4589 29.178 32.3576 29.785 33.5566 29.785C34.8642 29.8127 35.5733 28.9842 35.5733 28.0749H35.5712ZM30.1492 23.9647H26.8525V29.7594H30.1492V28.8203H27.9983V27.2763H29.9043V26.3648H27.9983V24.9294H30.1492V23.9647ZM21.1877 23.9924V29.7594H22.3313V27.4978H22.8765L24.1287 29.7594H25.464L24.101 27.4147C25.0274 27.1655 25.4086 26.45 25.4086 25.76C25.4086 24.7953 24.7271 23.9945 23.3386 23.9945H21.1856L21.1877 23.9924ZM24.2118 25.7855C24.2118 26.3094 23.9115 26.6417 23.2854 26.6417H22.3313V24.9592H23.2854C23.9392 24.9316 24.2118 25.2617 24.2118 25.7877V25.7855ZM19.9632 25.7579C19.9632 24.7654 19.2817 23.9647 17.8932 23.9647H15.7955V29.7594H16.9391V27.5531H17.8932C19.3924 27.5531 19.9632 26.6417 19.9632 25.76V25.7579ZM16.9668 26.614V24.9316H17.8655C18.5193 24.9316 18.7919 25.2361 18.7919 25.7877C18.7919 26.3392 18.4916 26.6161 17.8655 26.6161H16.9668V26.614ZM13.208 29.7594H14.5156L12.6905 26.8908L14.4879 23.9945H13.208L12.092 25.9261L10.8654 23.9945H9.55779L11.3829 26.8631L9.58547 29.7594H10.8654L11.9813 27.8279L13.208 29.7594ZM8.35881 23.9647H5.03445V29.7594H8.35881V28.8203H6.1802V27.2763H8.1139V26.3648H6.1802V24.9294H8.35881V23.9647Z" fill="white"/>
</g>
<defs>
<clipPath id="clip0_113_653">
<rect width="46" height="46" fill="white"/>
</clipPath>
</defs>
</svg>
