<svg width="20" height="24" viewBox="0 0 20 24" fill="none" xmlns="http://www.w3.org/2000/svg">
<path d="M9.97527 0.333252C12.7375 0.333252 15.1784 2.03901 16.0794 4.56577C16.1742 4.82088 16.1505 5.09918 16.032 5.34269C15.9134 5.58621 15.7012 5.77174 15.4392 5.85407C14.9057 6.03845 14.313 5.76131 14.1115 5.22789C13.5069 3.51054 11.8483 2.36254 9.99898 2.36254C7.57938 2.36254 5.6245 4.26543 5.61146 6.59505V8.16051L5.59723 8.16282H14.9366C17.6869 8.16282 19.9168 10.344 19.9168 13.0343V18.7951C19.9168 21.4854 17.6869 23.6666 14.9366 23.6666H5.06258C2.31341 23.6666 0.0834961 21.4854 0.0834961 18.7951V13.0343C0.0834961 10.8218 1.60093 8.97454 3.66606 8.38083L3.53684 8.3959V6.61825C3.56055 3.15222 6.44249 0.333252 9.97527 0.333252ZM9.99424 13.6129C9.4252 13.6129 8.96285 14.0652 8.96285 14.6218V17.1961C8.96285 17.7643 9.4252 18.2165 9.99424 18.2165C10.5751 18.2165 11.0375 17.7643 11.0375 17.1961V14.6218C11.0375 14.0652 10.5751 13.6129 9.99424 13.6129Z" fill="#416EEA"/>
</svg>
