<svg width="16" height="16" viewBox="0 0 16 16" fill="none" xmlns="http://www.w3.org/2000/svg">
<path d="M11.7895 1.68421V0.842105C11.7895 0.378947 11.4105 0 10.9474 0C10.4842 0 10.1053 0.378947 10.1053 0.842105V1.68421H5.05263V0.842105C5.05263 0.378947 4.67368 0 4.21053 0C3.74737 0 3.36842 0.378947 3.36842 0.842105V1.68421C1.50737 1.68421 0 3.19158 0 5.05263V12.6316C0 14.4926 1.50737 16 3.36842 16H11.7895C13.6505 16 15.1579 14.4926 15.1579 12.6316V5.05263C15.1579 3.19158 13.6505 1.68421 11.7895 1.68421ZM13.4737 12.6316C13.4737 13.5579 12.7158 14.3158 11.7895 14.3158H3.36842C2.44211 14.3158 1.68421 13.5579 1.68421 12.6316V5.05263C1.68421 4.12632 2.44211 3.36842 3.36842 3.36842V4.21053C3.36842 4.67368 3.74737 5.05263 4.21053 5.05263C4.67368 5.05263 5.05263 4.67368 5.05263 4.21053V3.36842H10.1053V4.21053C10.1053 4.67368 10.4842 5.05263 10.9474 5.05263C11.4105 5.05263 11.7895 4.67368 11.7895 4.21053V3.36842C12.7158 3.36842 13.4737 4.12632 13.4737 5.05263V12.6316Z" fill="white"/>
<path d="M9.54934 7.01471L6.89671 9.86946L5.83565 8.74945C5.51565 8.41261 4.98513 8.39576 4.64829 8.71576C4.31145 9.03576 4.2946 9.56629 4.6146 9.90313L6.03776 11.4021C6.26513 11.6379 6.57671 11.781 6.90513 11.781C7.23355 11.781 7.54513 11.6379 7.7725 11.4021L10.7788 8.15999C11.0988 7.81473 11.0736 7.2842 10.7367 6.97262C10.3914 6.65262 9.86092 6.67787 9.54934 7.01471V7.01471Z" fill="white"/>
</svg>
