<svg width="19" height="18" viewBox="0 0 19 18" fill="none" xmlns="http://www.w3.org/2000/svg">
<path d="M11.2876 4C12.0201 4.14292 12.6934 4.50119 13.2211 5.02895C13.7489 5.55671 14.1071 6.22995 14.2501 6.9625M11.2876 1C12.8095 1.16908 14.2288 1.85063 15.3123 2.93276C16.3957 4.01488 17.0791 5.43326 17.2501 6.955M16.5001 12.94V15.19C16.5009 15.3989 16.4581 15.6056 16.3745 15.797C16.2908 15.9884 16.168 16.1602 16.0141 16.3014C15.8602 16.4426 15.6785 16.5501 15.4806 16.617C15.2828 16.6839 15.0731 16.7088 14.8651 16.69C12.5572 16.4392 10.3403 15.6506 8.39257 14.3875C6.58044 13.236 5.04407 11.6996 3.89257 9.8875C2.62506 7.9309 1.83625 5.70325 1.59007 3.385C1.57133 3.1776 1.59598 2.96857 1.66245 2.77122C1.72892 2.57387 1.83575 2.39252 1.97615 2.23872C2.11654 2.08491 2.28743 1.96203 2.47792 1.87789C2.6684 1.79375 2.87433 1.7502 3.08257 1.75H5.33257C5.69655 1.74642 6.04942 1.87531 6.32539 2.11265C6.60137 2.34999 6.78163 2.67959 6.83257 3.04C6.92754 3.76005 7.10366 4.46705 7.35757 5.1475C7.45848 5.41594 7.48032 5.70769 7.4205 5.98816C7.36069 6.26863 7.22172 6.52608 7.02007 6.73L6.06757 7.6825C7.13524 9.56016 8.68991 11.1148 10.5676 12.1825L11.5201 11.23C11.724 11.0284 11.9814 10.8894 12.2619 10.8296C12.5424 10.7698 12.8341 10.7916 13.1026 10.8925C13.783 11.1464 14.49 11.3225 15.2101 11.4175C15.5744 11.4689 15.9071 11.6524 16.145 11.9331C16.3828 12.2138 16.5092 12.5722 16.5001 12.94Z" stroke="white" stroke-width="1.6" stroke-linecap="round" stroke-linejoin="round"/>
</svg>
