<svg width="15" height="15" viewBox="0 0 15 15" fill="none" xmlns="http://www.w3.org/2000/svg">
<path d="M14.4325 0.399998C14.1725 0.139998 13.8325 0 13.4725 0L3.9125 0.0200005C3.3625 0.0200005 2.9125 0.47 2.9125 1.02C2.9125 1.57 3.3625 2.02 3.9125 2.02H11.4125L0.2925 13.12C-0.0975 13.51 -0.0975 14.14 0.2925 14.53C0.4925 14.73 0.742491 14.82 1.00249 14.82C1.26249 14.82 1.5125 14.72 1.7125 14.53L12.8325 3.42V10.92C12.8225 11.47 13.2625 11.92 13.8225 11.92C14.3725 11.92 14.8225 11.47 14.8225 10.92L14.8425 1.36C14.8425 1 14.7025 0.649998 14.4525 0.399998H14.4325Z" fill="white"/>
</svg>
