<svg width="20" height="15" viewBox="0 0 20 15" fill="none" xmlns="http://www.w3.org/2000/svg">
<g clip-path="url(#clip0_342_5375)">
<rect x="1" y="1" width="18" height="13.0909" rx="1" fill="#1A47B8"/>
<path fill-rule="evenodd" clip-rule="evenodd" d="M2.91483 1H1V3.18182L17.0748 14.0909L19 14.0909V11.9091L2.91483 1Z" fill="white"/>
<path d="M1.63866 1L19 12.8127V14.0909H18.3763L1 2.26594V1H1.63866Z" fill="#F93939"/>
<path fill-rule="evenodd" clip-rule="evenodd" d="M17.2857 1H19V3.18182C19 3.18182 7.86555 10.4499 2.71429 14.0909H1V11.9091L17.2857 1Z" fill="white"/>
<path d="M19 1H18.4187L1 12.8229V14.0909H1.63866L19 2.2755V1Z" fill="#F93939"/>
<path fill-rule="evenodd" clip-rule="evenodd" d="M7.54607 1H12.4689V5.03795H19V10.0503H12.4689V14.0909H7.54607V10.0503H1V5.03795H7.54607V1Z" fill="white"/>
<path fill-rule="evenodd" clip-rule="evenodd" d="M8.57895 1H11.4211V6.03497H19V9.05595H11.4211V14.0909H8.57895V9.05595H1V6.03497H8.57895V1Z" fill="#F93939"/>
</g>
<rect x="1" y="1" width="18" height="13.0909" rx="1" stroke="white" stroke-width="0.4"/>
<defs>
<clipPath id="clip0_342_5375">
<rect x="1" y="1" width="18" height="13.0909" rx="1" fill="white"/>
</clipPath>
</defs>
</svg>
