<svg width="20" height="16" viewBox="0 0 20 16" fill="none" xmlns="http://www.w3.org/2000/svg">
<path d="M0.0200005 8.0425C0.0100005 7.6825 0.13 7.3125 0.41 7.0425L7.18 0.2925C7.57 -0.0975 8.2 -0.0975 8.59 0.2925C8.98 0.6825 8.98 1.3125 8.59 1.7025L3.22001 7.05249H19C19.55 7.05249 20 7.49249 20 8.05249C20 8.61249 19.55 9.05249 19 9.05249H3.32L8.58 14.2925C8.97 14.6825 8.97 15.3125 8.58 15.7025C8.38 15.9025 8.13 15.9925 7.87 15.9925C7.61 15.9925 7.36 15.8925 7.16 15.7025L0.390003 8.9525C0.240003 8.8025 0.139998 8.62249 0.079998 8.44249C0.029998 8.32249 3.8147e-06 8.19249 3.8147e-06 8.05249L0.0200005 8.0425Z" fill="white"/>
</svg>
