<svg width="24" height="22" viewBox="0 0 24 22" fill="none" xmlns="http://www.w3.org/2000/svg">
<path d="M17.7628 0.5C19.3273 0.5 20.8323 1.11833 21.9395 2.22783C23.0478 3.335 23.6673 4.82833 23.6673 6.39167V15.6083C23.6673 18.8633 21.019 21.5 17.7628 21.5H6.23732C2.98115 21.5 0.333984 18.8633 0.333984 15.6083V6.39167C0.333984 3.13667 2.96948 0.5 6.23732 0.5H17.7628ZM19.0823 6.56667C18.8373 6.55383 18.604 6.63667 18.4278 6.8L13.1673 11C12.4907 11.5612 11.5212 11.5612 10.834 11L5.58398 6.8C5.22115 6.53167 4.71948 6.56667 4.41732 6.88167C4.10232 7.19667 4.06732 7.69833 4.33448 8.04833L4.48732 8.2L9.79565 12.3417C10.449 12.855 11.2412 13.135 12.0707 13.135C12.8978 13.135 13.704 12.855 14.3562 12.3417L19.619 8.13L19.7123 8.03667C19.9912 7.69833 19.9912 7.20833 19.6995 6.87C19.5373 6.69617 19.3145 6.59 19.0823 6.56667Z" fill="#416EEA"/>
</svg>
