<svg width="20" height="16" viewBox="0 0 20 16" fill="none" xmlns="http://www.w3.org/2000/svg">
<path d="M19.98 8.0425C19.99 7.6825 19.87 7.3125 19.59 7.0425L12.82 0.2925C12.43 -0.0975 11.8 -0.0975 11.41 0.2925C11.02 0.6825 11.02 1.3125 11.41 1.7025L16.78 7.05249H1C0.45 7.05249 0 7.49249 0 8.05249C0 8.61249 0.45 9.05249 1 9.05249H16.68L11.42 14.2925C11.03 14.6825 11.03 15.3125 11.42 15.7025C11.62 15.9025 11.87 15.9925 12.13 15.9925C12.39 15.9925 12.64 15.8925 12.84 15.7025L19.61 8.9525C19.76 8.8025 19.86 8.62249 19.92 8.44249C19.97 8.32249 20 8.19249 20 8.05249L19.98 8.0425Z" fill="white"/>
</svg>
