<svg width="32" height="32" viewBox="0 0 32 32" fill="none" xmlns="http://www.w3.org/2000/svg">
<circle cx="16" cy="16" r="16" fill="#416EEA"/>
<path d="M23.984 16.434C23.992 16.146 23.896 15.85 23.672 15.634L18.256 10.234C17.944 9.922 17.44 9.922 17.128 10.234C16.816 10.546 16.816 11.05 17.128 11.362L21.424 15.642H8.8C8.36 15.642 8 15.994 8 16.442C8 16.89 8.36 17.242 8.8 17.242H21.344L17.136 21.434C16.824 21.746 16.824 22.25 17.136 22.562C17.296 22.722 17.496 22.794 17.704 22.794C17.912 22.794 18.112 22.714 18.272 22.562L23.688 17.162C23.808 17.042 23.888 16.898 23.936 16.754C23.976 16.658 24 16.554 24 16.442L23.984 16.434Z" fill="white"/>
</svg>
