<svg width="85" height="35" viewBox="0 0 85 35" fill="none" xmlns="http://www.w3.org/2000/svg">
<path fill-rule="evenodd" clip-rule="evenodd" d="M84.1123 18.084C84.1123 12.1027 81.2151 7.38306 75.6777 7.38306C70.1169 7.38306 66.7524 12.1027 66.7524 18.0373C66.7524 25.07 70.7244 28.6214 76.4253 28.6214C79.2057 28.6214 81.3085 27.9905 82.8973 27.1027V22.4298C81.3085 23.2242 79.4861 23.7148 77.173 23.7148C74.9066 23.7148 72.8973 22.9204 72.6403 20.1634H84.0655C84.0655 19.8597 84.1123 18.6447 84.1123 18.084ZM72.5702 15.8644C72.5702 13.2242 74.1823 12.126 75.6543 12.126C77.0795 12.126 78.5982 13.2242 78.5982 15.8644H72.5702Z" fill="#FFFEFA"/>
<path fill-rule="evenodd" clip-rule="evenodd" d="M57.7338 7.38306C55.4441 7.38306 53.9721 8.45782 53.1544 9.20549L52.8506 7.75689H47.7104V34.9999L53.5516 33.7616L53.5749 27.1494C54.4161 27.7569 55.6544 28.6214 57.7104 28.6214C61.8927 28.6214 65.7011 25.2569 65.7011 17.8503C65.6777 11.0746 61.8226 7.38306 57.7338 7.38306ZM56.3319 23.4812C54.9534 23.4812 54.1357 22.9905 53.5749 22.3831L53.5516 13.7148C54.159 13.0373 55.0002 12.57 56.3319 12.57C58.4581 12.57 59.9301 14.9531 59.9301 18.0139C59.9301 21.1447 58.4815 23.4812 56.3319 23.4812Z" fill="#FFFEFA"/>
<path fill-rule="evenodd" clip-rule="evenodd" d="M39.6729 6.00467L45.5373 4.74299V0L39.6729 1.23832V6.00467Z" fill="#FFFEFA"/>
<path d="M45.5373 7.78027H39.6729V28.2242H45.5373V7.78027Z" fill="#FFFEFA"/>
<path fill-rule="evenodd" clip-rule="evenodd" d="M33.3878 9.5093L33.014 7.78033H27.9673V28.2243H33.8084V14.3691C35.1869 12.57 37.5234 12.8971 38.2477 13.1542V7.78033C37.5 7.49995 34.7663 6.98593 33.3878 9.5093Z" fill="#FFFEFA"/>
<path fill-rule="evenodd" clip-rule="evenodd" d="M21.7057 2.71021L16.0048 3.92516L15.9814 22.6401C15.9814 26.0981 18.5749 28.6448 22.0328 28.6448C23.9487 28.6448 25.3506 28.2943 26.1216 27.8738V23.1308C25.374 23.4345 21.6824 24.5093 21.6824 21.0513V12.7569H26.1216V7.7803H21.6824L21.7057 2.71021Z" fill="#FFFEFA"/>
<path fill-rule="evenodd" clip-rule="evenodd" d="M5.91122 13.7148C5.91122 12.8036 6.65888 12.4532 7.8972 12.4532C9.6729 12.4532 11.9159 12.9905 13.6916 13.9485V8.45782C11.7523 7.68679 9.83645 7.38306 7.8972 7.38306C3.15421 7.38306 0 9.85969 0 13.9952C0 20.4438 8.8785 19.4158 8.8785 22.1961C8.8785 23.2709 7.94393 23.6214 6.63551 23.6214C4.69626 23.6214 2.21963 22.827 0.257009 21.7522V27.313C2.42991 28.2475 4.62617 28.6447 6.63551 28.6447C11.4953 28.6447 14.8364 26.2382 14.8364 22.056C14.8131 15.0933 5.91122 16.3317 5.91122 13.7148Z" fill="#FFFEFA"/>
</svg>
