<svg width="28" height="28" viewBox="0 0 28 28" fill="none" xmlns="http://www.w3.org/2000/svg">
<path d="M8.39996 0.666748H19.6C23.8666 0.666748 27.3333 4.13341 27.3333 8.40008V19.6001C27.3333 21.6511 26.5185 23.6181 25.0683 25.0684C23.618 26.5187 21.651 27.3334 19.6 27.3334H8.39996C4.13329 27.3334 0.666626 23.8668 0.666626 19.6001V8.40008C0.666626 6.34907 1.48139 4.38207 2.93167 2.93179C4.38195 1.48151 6.34895 0.666748 8.39996 0.666748ZM8.13329 3.33341C6.86025 3.33341 5.63936 3.83913 4.73918 4.7393C3.83901 5.63948 3.33329 6.86038 3.33329 8.13341V19.8667C3.33329 22.5201 5.47996 24.6667 8.13329 24.6667H19.8666C21.1397 24.6667 22.3606 24.161 23.2607 23.2609C24.1609 22.3607 24.6666 21.1398 24.6666 19.8667V8.13341C24.6666 5.48008 22.52 3.33341 19.8666 3.33341H8.13329ZM21 5.33342C21.442 5.33342 21.8659 5.50901 22.1785 5.82157C22.491 6.13413 22.6666 6.55805 22.6666 7.00008C22.6666 7.44211 22.491 7.86603 22.1785 8.17859C21.8659 8.49115 21.442 8.66675 21 8.66675C20.5579 8.66675 20.134 8.49115 19.8214 8.17859C19.5089 7.86603 19.3333 7.44211 19.3333 7.00008C19.3333 6.55805 19.5089 6.13413 19.8214 5.82157C20.134 5.50901 20.5579 5.33342 21 5.33342ZM14 7.33342C15.7681 7.33342 17.4638 8.03579 18.714 9.28604C19.9642 10.5363 20.6666 12.232 20.6666 14.0001C20.6666 15.7682 19.9642 17.4639 18.714 18.7141C17.4638 19.9644 15.7681 20.6667 14 20.6667C12.2318 20.6667 10.5362 19.9644 9.28591 18.7141C8.03567 17.4639 7.33329 15.7682 7.33329 14.0001C7.33329 12.232 8.03567 10.5363 9.28591 9.28604C10.5362 8.03579 12.2318 7.33342 14 7.33342ZM14 10.0001C12.9391 10.0001 11.9217 10.4215 11.1715 11.1717C10.4214 11.9218 9.99996 12.9392 9.99996 14.0001C9.99996 15.0609 10.4214 16.0784 11.1715 16.8285C11.9217 17.5787 12.9391 18.0001 14 18.0001C15.0608 18.0001 16.0782 17.5787 16.8284 16.8285C17.5785 16.0784 18 15.0609 18 14.0001C18 12.9392 17.5785 11.9218 16.8284 11.1717C16.0782 10.4215 15.0608 10.0001 14 10.0001Z" fill="#97C4FD"/>
</svg>
