<svg width="20" height="23" viewBox="0 0 20 23" fill="none" xmlns="http://www.w3.org/2000/svg">
<path d="M19.3744 7.79627C19.2653 7.85993 16.6672 9.20355 16.6672 12.1827C16.7897 15.5801 19.9459 16.7716 20 16.7716C19.9459 16.8353 19.5235 18.3947 18.2724 20.0294C17.2795 21.4375 16.1775 22.8571 14.504 22.8571C12.9121 22.8571 12.3407 21.9187 10.504 21.9187C8.53147 21.9187 7.97335 22.8571 6.46314 22.8571C4.78967 22.8571 3.60599 21.3614 2.55896 19.9665C1.19871 18.1409 0.0425398 15.2759 0.00172334 12.525C-0.0257834 11.0672 0.274128 9.63433 1.03544 8.41722C2.10998 6.71807 4.02835 5.56463 6.1233 5.52659C7.72845 5.47616 9.15703 6.55353 10.1366 6.55353C11.0754 6.55353 12.8305 5.52659 14.8163 5.52659C15.6735 5.52742 17.9592 5.76803 19.3744 7.79627ZM10.0009 5.23555C9.71515 3.90434 10.504 2.57312 11.2387 1.72396C12.1774 0.697026 13.6601 0 14.9388 0C15.0204 1.33121 14.5031 2.63679 13.5785 3.58766C12.7489 4.61459 11.3203 5.38769 10.0009 5.23555Z" fill="black"/>
</svg>
