<svg width="24" height="24" viewBox="0 0 24 24" fill="none" xmlns="http://www.w3.org/2000/svg">
<path d="M14.8216 4.40488C14.2663 4.30229 13.7562 4.65671 13.6505 5.19884C13.5447 5.74096 13.9003 6.27027 14.4405 6.37636C16.0672 6.69348 17.3232 7.95261 17.6415 9.58482C17.7322 10.0547 18.1458 10.3974 18.6222 10.3974C18.6861 10.3974 18.75 10.3916 18.815 10.3799C19.3553 10.2715 19.7108 9.74338 19.6051 9.20009C19.1299 6.76226 17.2535 4.87939 14.8216 4.40488Z" fill="#416EEA"/>
<path d="M14.7491 0.342747C14.4889 0.30544 14.2275 0.382387 14.0195 0.54794C13.8057 0.715825 13.6721 0.958325 13.643 1.22997C13.5814 1.77909 13.9777 2.27575 14.5261 2.33754C18.308 2.75959 21.2476 5.70573 21.6728 9.49946C21.7297 10.0078 22.1562 10.3913 22.6651 10.3913C22.7034 10.3913 22.7406 10.389 22.7789 10.3844C23.045 10.3552 23.282 10.2235 23.4493 10.0136C23.6155 9.80375 23.691 9.5426 23.6608 9.27561C23.131 4.5422 19.4676 0.868553 14.7491 0.342747Z" fill="#416EEA"/>
<path fill-rule="evenodd" clip-rule="evenodd" d="M10.8705 13.1345C15.5245 17.7871 16.5802 12.4045 19.5434 15.3656C22.4002 18.2215 24.0421 18.7937 20.4226 22.4122C19.9692 22.7765 17.0887 27.16 6.96553 17.0396C-3.1589 6.918 1.22201 4.03452 1.58646 3.58127C5.21467 -0.0471799 5.777 1.60428 8.63373 4.46022C11.5969 7.42258 6.2166 8.48182 10.8705 13.1345Z" fill="#416EEA"/>
</svg>
