<svg width="32" height="32" viewBox="0 0 32 32" fill="none" xmlns="http://www.w3.org/2000/svg">
<path d="M25.391 16.6024C25.391 15.9433 25.3272 15.2629 25.2209 14.625H16.0142V18.3885H21.2873C21.0747 19.6004 20.373 20.6636 19.3311 21.344L22.478 23.7892C24.3278 22.0669 25.391 19.5579 25.391 16.6024Z" fill="#4280EF"/>
<path d="M16.016 26.1284C18.6526 26.1284 20.8639 25.2566 22.4798 23.7682L19.333 21.3443C18.4612 21.9397 17.3343 22.2799 16.016 22.2799C13.4645 22.2799 11.317 20.5576 10.5302 18.2612L7.29834 20.749C8.95682 24.0446 12.3163 26.1284 16.016 26.1284Z" fill="#34A353"/>
<path d="M10.5292 18.24C10.1252 17.028 10.1252 15.7097 10.5292 14.4978L7.29729 11.9888C5.91523 14.7529 5.91523 18.0061 7.29729 20.7489L10.5292 18.24Z" fill="#F6B704"/>
<path d="M16.016 10.479C17.3981 10.4578 18.7589 10.9893 19.7582 11.9462L22.5436 9.1395C20.7788 7.48102 18.4399 6.588 16.016 6.60926C12.3163 6.60926 8.95682 8.69299 7.29834 11.9887L10.5303 14.4977C11.317 12.1801 13.4645 10.479 16.016 10.479Z" fill="#E54335"/>
</svg>
