<svg width="14" height="14" viewBox="0 0 14 14" fill="none" xmlns="http://www.w3.org/2000/svg">
<path fill-rule="evenodd" clip-rule="evenodd" d="M7.73617 1.47789L8.95445 4.05489C9.07384 4.30787 9.30431 4.4833 9.57157 4.52389L12.2969 4.93926C12.9702 5.04219 13.2382 5.90627 12.7509 6.40137L10.7801 8.40643C10.5864 8.6036 10.4983 8.88703 10.5441 9.16539L11.0092 11.9961C11.1237 12.6964 10.4198 13.2306 9.818 12.8993L7.38214 11.5619C7.14335 11.4307 6.85735 11.4307 6.61786 11.5619L4.182 12.8993C3.58015 13.2306 2.87626 12.6964 2.9915 11.9961L3.4559 9.16539C3.50171 8.88703 3.41355 8.6036 3.21988 8.40643L1.24912 6.40137C0.76181 5.90627 1.02976 5.04219 1.70311 4.93926L4.42843 4.52389C4.69569 4.4833 4.92685 4.30787 5.04625 4.05489L6.26383 1.47789C6.5651 0.840704 7.4349 0.840704 7.73617 1.47789Z" fill="white" stroke="white" stroke-linecap="round" stroke-linejoin="round"/>
</svg>
